<svg width="21" height="21" viewBox="0 0 21 21" fill="none" xmlns="http://www.w3.org/2000/svg">
<path fill-rule="evenodd" clip-rule="evenodd" d="M4.70546 1.08344L10.4851 6.80496L16.3894 0.886382C17.2914 -0.0803072 18.4479 -0.247377 19.3929 0.397848C20.3538 1.05384 21 2.47716 21 4.42079V16.8929C21 17.6002 20.9345 18.6134 20.5373 19.4674C20.1109 20.3842 19.3631 20.9917 18.214 20.9917H15.9036C15.5985 20.9917 15.351 20.6558 15.351 20.2417V11.5514L10.8169 16.1279C10.6208 16.3259 10.3521 16.3255 10.1563 16.1269L5.64898 11.5556V16.8281C5.64898 17.2423 5.40156 17.5781 5.09635 17.5781C4.79114 17.5781 4.54371 17.2423 4.54371 16.8281V10.0589C4.54371 9.77496 4.66179 9.51546 4.84878 9.38841C5.03577 9.26121 5.25963 9.28821 5.42716 9.45816L10.488 14.5906L15.5738 9.45711C15.7415 9.28791 15.9651 9.26136 16.1518 9.38871C16.3384 9.51606 16.4563 9.77541 16.4563 10.0589V19.4917H18.214C19.0364 19.4917 19.4053 19.091 19.6027 18.6667C19.8293 18.1793 19.8947 17.5183 19.8947 16.8929V4.42079C19.8947 2.9474 19.4243 2.0984 18.8962 1.73783C18.3552 1.36841 17.6546 1.4376 17.069 2.06928C17.0639 2.07479 17.0587 2.08017 17.0535 2.08542L10.8154 8.33856C10.6212 8.53326 10.3564 8.53431 10.1615 8.34126L4.04727 2.28852C3.49922 1.73409 2.68859 1.39949 2.06661 1.52745C1.77007 1.58847 1.54552 1.74671 1.39188 1.99346C1.23815 2.24036 1.10526 2.65647 1.10526 3.36152V17.4739C1.10526 18.4657 1.3664 18.9371 1.61616 19.1804C1.89633 19.4534 2.24994 19.5224 2.4802 19.4945C2.49651 19.4926 2.51289 19.4917 2.52927 19.4917H3.99108C4.2963 19.4917 4.54371 19.8274 4.54371 20.2417C4.54371 20.6558 4.2963 20.9917 3.99108 20.9917H2.55191C2.12391 21.0358 1.50395 20.9177 0.971593 20.399C0.39774 19.8398 0 18.8875 0 17.4739V3.36152C0 2.3979 0.184789 1.60809 0.54768 1.0253C0.91066 0.442353 1.40169 0.147123 1.90094 0.044403C2.8695 -0.154872 3.96998 0.340743 4.70546 1.08344Z" fill="white" stroke="black" stroke-width="0.000323232"/>
</svg>
