<svg width="21" height="21" viewBox="0 0 21 21" fill="none" xmlns="http://www.w3.org/2000/svg">
<path d="M19.0909 0H1.90909C0.854318 0 0 0.854318 0 1.90909V19.0909C0 20.1457 0.854318 21 1.90909 21H11.4545V12.4091H8.59091V9.54545H11.4545V8.00768C11.4545 5.09632 12.873 3.81818 15.2928 3.81818C16.4516 3.81818 17.0644 3.90409 17.3546 3.94323V6.68182H15.7042C14.6771 6.68182 14.3182 7.224 14.3182 8.32173V9.54545H17.3288L16.9203 12.4091H14.3182V21H19.0909C20.1457 21 21 20.1457 21 19.0909V1.90909C21 0.854318 20.1447 0 19.0909 0Z" fill="#EFEFEF"/>
</svg>
