<svg width="21" height="21" viewBox="0 0 21 21" fill="none" xmlns="http://www.w3.org/2000/svg">
<path d="M10.5 5.10397C9.43369 5.10397 8.39131 5.41989 7.50474 6.01174C6.61813 6.60359 5.92711 7.44482 5.51904 8.42902C5.11098 9.41326 5.00422 10.4963 5.21225 11.5411C5.42026 12.5859 5.93375 13.5457 6.68775 14.299C7.44174 15.0522 8.40236 15.5652 9.44815 15.773C10.4941 15.9809 11.578 15.8742 12.5632 15.4665C13.5483 15.0589 14.3903 14.3685 14.9827 13.4828C15.5752 12.597 15.8914 11.5556 15.8914 10.4903C15.8931 9.78242 15.7549 9.08128 15.4845 8.42704C15.2141 7.7727 14.8172 7.17824 14.3162 6.67773C13.8152 6.17721 13.2201 5.78053 12.5653 5.51045C11.9103 5.24039 11.2085 5.10225 10.5 5.10397ZM10.5 13.9979C9.80556 13.9979 9.12677 13.7922 8.54937 13.4067C7.9721 13.0214 7.52204 12.4736 7.25631 11.8326C6.99057 11.1917 6.92105 10.4865 7.05652 9.80594C7.19198 9.12556 7.52637 8.50048 8.01734 8.00994C8.50835 7.51943 9.13401 7.18536 9.81503 7.05002C10.4962 6.91468 11.2021 6.98413 11.8436 7.24963C12.4852 7.51511 13.0335 7.96474 13.4192 8.54147C13.805 9.11833 14.011 9.79648 14.011 10.4903C14.011 11.4205 13.6411 12.3128 12.9826 12.9706C12.3242 13.6284 11.4311 13.9979 10.5 13.9979ZM17.3773 4.88064C17.3773 5.14048 17.3002 5.39448 17.1557 5.61051C17.0112 5.82655 16.8058 5.99495 16.5655 6.09437C16.3253 6.19381 16.0609 6.21982 15.8058 6.16913C15.5506 6.11844 15.3165 5.99332 15.1325 5.80959C14.9487 5.62587 14.8233 5.39178 14.7726 5.13695C14.7218 4.8821 14.7479 4.61796 14.8474 4.3779C14.9469 4.13785 15.1155 3.93268 15.3317 3.78832C15.548 3.64396 15.8022 3.56691 16.0623 3.56691C16.411 3.56691 16.7456 3.70532 16.9921 3.9517C17.2388 4.19806 17.3773 4.53222 17.3773 4.88064ZM20.9408 6.19437C20.9791 4.56118 20.3693 2.97914 19.2445 1.79337C18.0639 0.655267 16.4797 0.0315991 14.8394 0.05924C13.1299 -0.0195839 7.87006 -0.0195839 6.16062 0.05924C4.52639 0.0238875 2.94392 0.632697 1.75548 1.75395C0.63071 2.93973 0.0209343 4.52177 0.0591735 6.15496C-0.0197245 7.8628 -0.0197245 13.1177 0.0591735 14.8256C0.0209343 16.4588 0.63071 18.0408 1.75548 19.2266C2.94392 20.3479 4.52639 20.9566 6.16062 20.9213C7.89636 21.0264 13.1036 21.0264 14.8394 20.9213C16.4741 20.9595 18.0576 20.3503 19.2445 19.2266C20.3693 18.0408 20.9791 16.4588 20.9408 14.8256C21.0197 13.1177 21.0197 7.8628 20.9408 6.15496V6.19437ZM18.7054 16.7042C18.5268 17.1561 18.2574 17.5664 17.9135 17.91C17.5696 18.2535 17.159 18.5227 16.7066 18.7011C14.6653 19.1135 12.5784 19.2548 10.5 19.1215C8.42603 19.255 6.34341 19.1136 4.30651 18.7011C3.85426 18.5227 3.44348 18.2535 3.09967 17.91C2.75584 17.5664 2.48631 17.1561 2.30777 16.7042C1.75548 15.3117 1.87383 12.0273 1.87383 10.5034C1.87383 8.97947 1.75548 5.68201 2.30777 4.3026C2.48128 3.8463 2.74888 3.43155 3.09322 3.08527C3.43756 2.73899 3.85093 2.46891 4.30651 2.29258C6.34341 1.88005 8.42603 1.73869 10.5 1.87219C12.5784 1.73891 14.6653 1.88027 16.7066 2.29258C17.159 2.47096 17.5696 2.74024 17.9135 3.08374C18.2574 3.42723 18.5268 3.83763 18.7054 4.28946C19.2577 5.68202 19.1262 8.96633 19.1262 10.4903C19.1262 12.0142 19.2577 15.3117 18.7054 16.6911V16.7042Z" fill="white" stroke="black" stroke-width="0.000316832"/>
</svg>
